<svg xmlns="http://www.w3.org/2000/svg" width="18" height="13.5" viewBox="0 0 18 13.5">
  <path id="Icon_awesome-envelope" data-name="Icon awesome-envelope" d="M17.659,8.958A.212.212,0,0,1,18,9.123v7.189A1.688,1.688,0,0,1,16.313,18H1.688A1.688,1.688,0,0,1,0,16.313V9.127a.21.21,0,0,1,.341-.165c.788.612,1.832,1.389,5.418,3.994C6.5,13.5,7.752,14.636,9,14.629c1.255.011,2.531-1.153,3.245-1.673C15.831,10.35,16.871,9.57,17.659,8.958ZM9,13.5c.816.014,1.99-1.027,2.58-1.455,4.665-3.386,5.02-3.681,6.1-4.525A.841.841,0,0,0,18,6.855V6.187A1.688,1.688,0,0,0,16.313,4.5H1.688A1.688,1.688,0,0,0,0,6.187v.668a.846.846,0,0,0,.323.664c1.076.84,1.431,1.139,6.1,4.525C7.01,12.473,8.184,13.514,9,13.5Z" transform="translate(0 -4.5)" fill="#fff"/>
</svg>
