<svg xmlns="http://www.w3.org/2000/svg" width="42.244" height="36.964" viewBox="0 0 42.244 36.964">
  <path id="Icon_awesome-headphones" data-name="Icon awesome-headphones" d="M21.122,2.25A21.111,21.111,0,0,0,0,23.372v3.96a2.64,2.64,0,0,0,1.46,2.362l1.187.593a9.241,9.241,0,0,0,9.235,8.926h1.98a1.98,1.98,0,0,0,1.98-1.98V22.712a1.98,1.98,0,0,0-1.98-1.98h-1.98a9.212,9.212,0,0,0-6.6,2.775v-.134a15.842,15.842,0,0,1,31.683,0v.134a9.212,9.212,0,0,0-6.6-2.775h-1.98a1.98,1.98,0,0,0-1.98,1.98V37.233a1.98,1.98,0,0,0,1.98,1.98h1.98A9.241,9.241,0,0,0,39.6,30.287l1.187-.593a2.64,2.64,0,0,0,1.46-2.362v-3.96A21.111,21.111,0,0,0,21.122,2.25Z" transform="translate(0 -2.25)" fill="#b91818"/>
</svg>
