<svg xmlns="http://www.w3.org/2000/svg" width="36.87" height="36.861" viewBox="0 0 36.87 36.861">
  <path id="Icon_awesome-instagram" data-name="Icon awesome-instagram" d="M18.434,11.218a9.451,9.451,0,1,0,9.451,9.451A9.436,9.436,0,0,0,18.434,11.218Zm0,15.6a6.144,6.144,0,1,1,6.144-6.144A6.155,6.155,0,0,1,18.434,26.813ZM30.475,10.831a2.2,2.2,0,1,1-2.2-2.2A2.2,2.2,0,0,1,30.475,10.831Zm6.259,2.237c-.14-2.953-.814-5.568-2.978-7.723s-4.771-2.829-7.723-2.978c-3.043-.173-12.165-.173-15.208,0-2.945.14-5.56.814-7.723,2.969S.272,10.107.124,13.06c-.173,3.043-.173,12.165,0,15.208.14,2.953.814,5.568,2.978,7.723s4.771,2.829,7.723,2.978c3.043.173,12.165.173,15.208,0,2.953-.14,5.568-.814,7.723-2.978s2.829-4.771,2.978-7.723c.173-3.043.173-12.157,0-15.2ZM32.8,31.534a6.221,6.221,0,0,1-3.5,3.5c-2.426.962-8.184.74-10.866.74s-8.447.214-10.866-.74a6.221,6.221,0,0,1-3.5-3.5c-.962-2.426-.74-8.184-.74-10.866S3.11,12.221,4.064,9.8a6.221,6.221,0,0,1,3.5-3.5c2.426-.962,8.184-.74,10.866-.74s8.447-.214,10.866.74a6.221,6.221,0,0,1,3.5,3.5c.962,2.426.74,8.184.74,10.866S33.765,29.116,32.8,31.534Z" transform="translate(0.005 -2.238)" fill="#e3426d"/>
</svg>
