<svg xmlns="http://www.w3.org/2000/svg" width="42.244" height="37.552" viewBox="0 0 42.244 37.552">
  <path id="Icon_awesome-piggy-bank" data-name="Icon awesome-piggy-bank" d="M41.072,16.429H38.909a11.771,11.771,0,0,0-2.743-3.851l1.386-5.537H35.2a7,7,0,0,0-5.354,2.516,11.632,11.632,0,0,0-1.687-.169H18.776a11.746,11.746,0,0,0-11.5,9.388H4.107a1.762,1.762,0,0,1-1.724-2.112,1.807,1.807,0,0,1,1.8-1.408h.073a.441.441,0,0,0,.44-.44V13.348a.441.441,0,0,0-.44-.44A4.2,4.2,0,0,0,.037,16.473a4.11,4.11,0,0,0,4.071,4.65H7.041a11.688,11.688,0,0,0,4.694,9.337v5.919a1.177,1.177,0,0,0,1.173,1.173H17.6a1.177,1.177,0,0,0,1.173-1.173v-3.52h9.388v3.52a1.177,1.177,0,0,0,1.173,1.173h4.694A1.177,1.177,0,0,0,35.2,36.378V30.46a11.737,11.737,0,0,0,2.3-2.3h3.572a1.177,1.177,0,0,0,1.173-1.173V17.6A1.177,1.177,0,0,0,41.072,16.429Zm-9.388,4.694a1.173,1.173,0,1,1,1.173-1.173A1.177,1.177,0,0,1,31.684,21.123ZM18.776,7.041h9.388c.4,0,.785.029,1.166.059,0-.022.007-.037.007-.059a7.041,7.041,0,1,0-14.082,0c0,.154.037.3.044.455A13.942,13.942,0,0,1,18.776,7.041Z" transform="translate(-0.002)" fill="#1c2f85"/>
</svg>
