<svg xmlns="http://www.w3.org/2000/svg" width="45.615" height="37.048" viewBox="0 0 45.615 37.048">
  <path id="Icon_awesome-twitter" data-name="Icon awesome-twitter" d="M40.926,12.614c.029.405.029.81.029,1.216,0,12.359-9.407,26.6-26.6,26.6A26.419,26.419,0,0,1,0,36.232a19.34,19.34,0,0,0,2.258.116,18.723,18.723,0,0,0,11.606-3.994A9.365,9.365,0,0,1,5.123,25.87a11.79,11.79,0,0,0,1.766.145,9.888,9.888,0,0,0,2.46-.318,9.35,9.35,0,0,1-7.5-9.175v-.116a9.415,9.415,0,0,0,4.226,1.187,9.363,9.363,0,0,1-2.894-12.5A26.574,26.574,0,0,0,22.46,14.871a10.554,10.554,0,0,1-.232-2.142,9.358,9.358,0,0,1,16.18-6.4,18.406,18.406,0,0,0,5.933-2.258,9.324,9.324,0,0,1-4.11,5.152A18.742,18.742,0,0,0,45.615,7.78a20.1,20.1,0,0,1-4.689,4.834Z" transform="translate(0 -3.381)" fill="#1da0f2"/>
</svg>
